<svg width="451" height="466" viewBox="0 0 451 466" fill="none" xmlns="http://www.w3.org/2000/svg">
<path d="M210.887 300.991C206.694 306.389 202.006 310.369 194.919 310.303C186.422 310.224 179.432 304.179 178.902 295.624C178.425 287.92 178.593 280.172 178.587 272.443C178.576 255.746 178.839 239.045 178.577 222.352C178.459 214.792 180.656 208.253 184.87 202.211C194.542 188.348 204.268 174.523 213.894 160.629C215.139 158.833 215.927 156.722 216.927 154.757C216.6 154.417 216.273 154.078 215.947 153.738C214.776 154.286 213.353 154.574 212.476 155.426C207.475 160.281 202.171 164.916 197.784 170.29C189.542 180.385 181.599 190.751 174.039 201.365C169.893 207.185 168.394 214.093 168.45 221.399C168.612 242.516 168.445 263.635 168.53 284.753C168.587 298.955 153.684 305.839 142.472 300.594C136.87 297.973 134.718 292.859 134.681 287.122C134.524 263.181 134.333 239.234 134.742 215.298C134.958 202.626 139.823 191.176 147.226 180.975C161.319 161.555 175.537 142.224 189.863 122.976C199.807 109.618 213.469 102.11 229.437 98.0424C253.973 91.792 278.438 85.2433 302.09 76.0434C311.288 72.4657 320.105 68.1816 327.271 61.2217C340.68 48.1973 342.986 33.9641 334.421 17.2743C332.711 13.9426 330.314 10.9667 328.559 7.65441C327.733 6.09593 326.848 3.68495 327.5 2.46842C328.192 1.17623 330.665 0.205924 332.372 0.187654C348.086 0.0195386 363.803 0.0886267 379.519 0.0885479C401.865 0.0884352 424.211 0.100364 446.557 0.0662194C448.454 0.0633186 450.638 -0.0975337 450.923 2.19133C451.149 4.00851 450.907 6.45356 449.831 7.76895C443.529 15.4793 438.562 23.8015 436.486 33.6473C436.188 35.0611 435.995 36.5268 435.993 37.9688C435.961 58.9642 436.365 79.9691 435.862 100.953C435.318 123.596 431.735 145.737 421.26 166.223C412.946 182.482 400.896 195.851 387.347 207.738C371.252 221.859 354.384 235.097 338.092 249C327.031 258.438 318.467 269.985 311.507 282.744C309.717 286.024 307.688 289.187 305.588 292.282C301.433 298.405 295.719 302.467 288.19 301.701C279.611 300.829 274.767 294.631 272.146 287.047C269.136 278.34 271.244 269.752 274.313 261.412C279.52 247.257 288.115 235.15 298.007 224.038C306.402 214.608 315.632 205.925 324.34 196.767C329.817 191.006 334.758 184.803 336.592 176.787C337.021 174.911 337.269 172.928 337.184 171.013C337.031 167.562 333.985 165.616 330.551 166.214C315.369 168.86 300.198 171.59 284.967 173.929C276.162 175.281 267.231 175.793 258.405 177.031C256.171 177.344 253.473 178.446 252.094 180.105C240.379 194.191 228.792 208.39 217.518 222.83C215.748 225.097 215.075 228.738 215.038 231.757C214.817 250.049 214.907 268.344 214.94 286.638C214.949 291.731 213.889 296.486 210.887 300.991Z" fill="#2C907A"/>
<path d="M122.03 455.612C122.807 457.921 124.324 460.2 123.89 462.014C123.176 465.002 119.968 464.833 117.399 464.836C84.6201 464.865 51.8412 464.865 19.0624 464.871C14.7657 464.871 10.4471 465.112 6.18271 464.739C4.3903 464.582 1.92094 463.522 1.2057 462.13C0.492468 460.742 1.08807 458.139 1.98063 456.562C5.83563 449.749 10.6352 443.4 13.8443 436.317C15.9197 431.736 16.604 426.179 16.6102 421.058C16.7657 294.117 16.7139 167.176 16.8169 40.2341C16.8261 28.9353 12.0021 19.941 5.07116 11.66C3.73717 10.0662 2.2116 8.61253 1.02878 6.91679C-1.17947 3.75094 0.307588 0.611198 4.148 0.117015C4.99385 0.00814985 5.86462 0.0892448 6.72391 0.0892227C44.0453 0.088256 81.3666 0.0879854 118.688 0.0876936C119.302 0.0876936 120.042 -0.13468 120.507 0.128798C122.213 1.09632 124.305 1.91281 125.29 3.41622C125.839 4.25512 124.919 6.73907 123.928 7.79111C118.694 13.3474 114.033 19.3555 111.607 26.5796C109.82 31.9029 108.29 37.6167 108.242 43.1704C107.958 75.9466 108.136 108.727 108.171 141.506C108.178 148.859 110.113 151.504 117.224 151.909C127.378 152.486 137.57 152.412 147.745 152.607C149.178 152.634 150.611 152.611 152.753 152.611C148.843 158.581 145.356 164.05 141.724 169.421C134.712 179.79 128.661 190.595 126.161 203.035C125.42 206.725 125.058 210.496 124.199 214.154C123.966 215.147 122.665 216.386 121.662 216.597C119.78 216.991 117.755 216.662 115.793 216.732C110.296 216.928 107.977 220.244 107.989 224.736C108.145 281.822 108.099 338.909 108.103 395.996C108.104 404.221 108.206 412.449 108.066 420.672C107.856 433.064 112.36 443.645 120.073 453.069C120.693 453.826 121.287 454.605 122.03 455.612Z" fill="#2C907A"/>
<path d="M366.524 238.641C372.576 234.322 378.434 230.182 384.971 225.563C385.149 227.915 385.396 229.646 385.394 231.377C385.324 291.051 385.447 350.728 385.004 410.4C384.876 427.728 390.226 442.261 402.216 454.593C404.065 456.496 406.92 458.504 405.469 461.767C403.963 465.158 400.653 464.824 397.519 464.827C370.138 464.846 342.757 464.929 315.375 465.042C312.715 465.053 309.586 465.047 308.844 462.35C308.279 460.296 309.066 457.222 310.374 455.414C315.751 447.979 320.632 440.387 322.052 431.108C322.586 427.618 323.181 424.087 323.187 420.574C323.261 376.984 323.323 333.394 323.117 289.804C323.09 284.086 324.809 279.352 327.99 274.993C336.151 263.812 346.523 254.822 357.145 246.106C360.165 243.627 363.266 241.246 366.524 238.641Z" fill="#2C907A"/>
<path d="M283.389 330.183C283.406 343.071 283.459 355.591 283.426 368.11C283.405 376.295 280.886 378.78 272.79 378.846C271.102 378.859 269.414 378.848 267.242 378.848C267.242 380.616 267.235 381.915 267.243 383.214C267.398 407.147 267.568 431.081 267.69 455.014C267.7 457.085 267.609 459.204 267.182 461.219C266.648 463.741 264.938 465.178 262.217 465.013C259.586 464.854 257.767 463.657 257.648 460.823C257.361 453.97 256.993 447.115 256.954 440.259C256.85 421.725 256.904 403.191 256.889 384.657C256.885 378.813 256.876 378.814 250.872 378.858C249.768 378.866 248.662 378.901 247.56 378.86C244.123 378.732 242.237 376.697 241.489 373.567C241.123 372.035 241.055 370.402 241.058 368.816C241.09 349.423 241.199 330.03 241.178 310.637C241.175 307.867 241.873 306.236 244.773 305.359C251.791 303.24 256.999 298.593 261.32 292.092C262.37 293.472 263.295 294.513 264.027 295.676C268.022 302.024 273.315 306.885 280.002 310.346C281.223 310.978 282.494 312.713 282.621 314.046C283.12 319.279 283.172 324.555 283.389 330.183Z" fill="#2C907A"/>
<path d="M173.079 463.329C172.464 460.238 171.694 457.379 171.675 454.514C171.522 431.19 171.513 407.864 171.45 384.538C171.432 377.982 172.087 378.75 165.795 378.901C161.922 378.994 158.715 378.285 157.255 374.22C156.973 373.436 156.74 372.582 156.739 371.76C156.711 351.877 156.717 331.994 156.717 312.661C161.5 310.079 165.945 307.68 170.534 305.202C172.729 307.913 174.82 310.926 177.344 313.517C181.646 317.932 186.966 320.557 193.214 320.638C196.376 320.679 197.36 321.735 197.321 324.968C197.146 339.821 197.246 354.677 197.243 369.531C197.241 376.42 194.947 378.774 188.125 378.883C186.419 378.911 184.713 378.887 182.537 378.887C182.473 380.321 182.364 381.601 182.366 382.882C182.405 407.435 182.458 431.988 182.507 456.541C182.508 457.277 182.519 458.015 182.489 458.75C182.268 464.122 177.785 467.215 173.079 463.329Z" fill="#2C907A"/>
<path d="M236.424 296.29C229.298 295.778 225.289 291.729 225.262 284.982C225.194 267.683 225.044 250.379 225.419 233.088C225.489 229.856 227.145 226.076 229.272 223.569C239.092 211.991 249.305 200.744 259.491 189.482C260.317 188.568 261.989 188.049 263.292 188.002C267.825 187.837 272.368 187.945 276.907 187.979C282.13 188.019 286.398 192.966 284.543 197.874C282.566 203.105 279.629 208.048 276.596 212.787C271.556 220.662 266.127 228.289 260.817 235.989C258.531 239.303 257.586 242.847 257.585 246.933C257.581 256.617 257.422 266.315 256.852 275.979C256.242 286.331 246.374 297.288 236.424 296.29Z" fill="#2C907A"/>
</svg>
