<svg width="483" height="235" viewBox="0 0 483 235" fill="none" xmlns="http://www.w3.org/2000/svg">
<path d="M99.4055 146.088C97.4399 148.619 95.2422 150.484 91.9204 150.453C87.9376 150.416 84.6609 147.583 84.4126 143.573C84.1891 139.961 84.2675 136.329 84.2651 132.707C84.2599 124.88 84.3828 117.051 84.2603 109.227C84.2048 105.683 85.2345 102.618 87.2102 99.7858C91.7438 93.2875 96.3026 86.8069 100.815 80.2941C101.398 79.4523 101.768 78.4627 102.237 77.5415C102.083 77.3824 101.93 77.2233 101.777 77.0641C101.228 77.3211 100.561 77.4562 100.15 77.8551C97.8061 80.131 95.3199 82.3039 93.2632 84.823C89.3999 89.5548 85.6768 94.4137 82.133 99.389C80.1898 102.117 79.487 105.355 79.5133 108.78C79.5892 118.678 79.5106 128.578 79.5506 138.477C79.5775 145.134 72.5916 148.361 67.3361 145.902C64.71 144.674 63.7016 142.277 63.684 139.587C63.6106 128.365 63.5211 117.14 63.7126 105.92C63.814 99.9803 66.0945 94.6128 69.5645 89.8311C76.1704 80.7281 82.835 71.667 89.5506 62.6446C94.2114 56.3829 100.615 52.8637 108.1 50.957C119.602 48.0271 131.07 44.9574 142.156 40.645C146.468 38.968 150.601 36.9599 153.96 33.6974C160.245 27.5923 161.326 20.9206 157.312 13.0972C156.51 11.5355 155.386 10.1406 154.564 8.58797C154.176 7.85744 153.762 6.7273 154.067 6.15706C154.391 5.55135 155.551 5.09653 156.351 5.08796C163.717 5.00916 171.084 5.04154 178.451 5.04151C188.925 5.04145 199.4 5.04705 209.875 5.03104C210.764 5.02968 211.788 4.95428 211.921 6.02718C212.027 6.87897 211.914 8.02508 211.41 8.64166C208.455 12.2559 206.127 16.1569 205.154 20.772C205.014 21.4347 204.924 22.1218 204.923 22.7977C204.908 32.6392 205.097 42.4852 204.861 52.3211C204.607 62.935 202.927 73.3135 198.017 82.9161C194.12 90.5379 188.472 96.8043 182.12 102.376C174.576 108.995 166.669 115.201 159.032 121.718C153.847 126.142 149.833 131.554 146.571 137.535C145.732 139.073 144.78 140.555 143.796 142.006C141.848 144.876 139.17 146.78 135.641 146.421C131.619 146.012 129.349 143.107 128.12 139.552C126.709 135.471 127.698 131.445 129.136 127.536C131.577 120.901 135.606 115.226 140.242 110.017C144.178 105.596 148.504 101.527 152.586 97.2336C155.154 94.5331 157.469 91.6256 158.329 87.868C158.53 86.9886 158.646 86.0594 158.607 85.1618C158.535 83.5438 157.107 82.6319 155.497 82.9124C148.381 84.1523 141.269 85.4322 134.13 86.5286C130.003 87.1624 125.816 87.4024 121.679 87.9825C120.632 88.1293 119.367 88.6458 118.721 89.4233C113.23 96.0264 107.798 102.682 102.514 109.451C101.684 110.513 101.368 112.22 101.351 113.635C101.247 122.209 101.29 130.785 101.305 139.361C101.309 141.748 100.813 143.977 99.4055 146.088Z" fill="#F6F4EE"/>
<path d="M57.7538 218.567C58.1181 219.649 58.8292 220.717 58.6261 221.567C58.2912 222.968 56.7876 222.889 55.5833 222.89C40.2183 222.904 24.8533 222.904 9.48839 222.906C7.47433 222.907 5.45 223.019 3.4511 222.844C2.61091 222.771 1.45341 222.274 1.11814 221.622C0.783821 220.971 1.06301 219.751 1.48139 219.012C3.28841 215.818 5.5382 212.842 7.04244 209.522C8.01526 207.375 8.33603 204.77 8.33896 202.369C8.41182 142.866 8.38754 83.3628 8.43583 23.8596C8.44013 18.5633 6.17892 14.3473 2.93006 10.4656C2.30476 9.7185 1.58966 9.03709 1.03521 8.24222C0.000107699 6.75824 0.697159 5.2865 2.49734 5.05485C2.89383 5.00382 3.30199 5.04183 3.70479 5.04182C21.199 5.04137 38.6933 5.04124 56.1875 5.04111C56.4752 5.04111 56.8223 4.93687 57.0401 5.06037C57.8399 5.51389 58.8204 5.89662 59.2821 6.60134C59.5397 6.99457 59.1082 8.15891 58.6436 8.65205C56.1901 11.2565 54.0056 14.0728 52.8685 17.4591C52.0305 19.9544 51.3135 22.6327 51.2909 25.236C51.1577 40.5997 51.2415 55.9653 51.2576 71.3303C51.2612 74.7773 52.1678 76.0171 55.5012 76.2067C60.2609 76.4773 65.0381 76.4424 69.8079 76.5338C70.4795 76.5467 71.1515 76.5356 72.1555 76.5356C70.3226 79.3342 68.6879 81.8976 66.9855 84.4153C63.6989 89.2757 60.8624 94.3408 59.6906 100.172C59.343 101.901 59.1732 103.669 58.7707 105.384C58.6613 105.85 58.0517 106.43 57.5817 106.529C56.6993 106.714 55.7503 106.559 54.8307 106.592C52.2538 106.684 51.1667 108.238 51.1725 110.344C51.2456 137.103 51.2241 163.862 51.226 190.622C51.2262 194.477 51.2742 198.334 51.2087 202.188C51.1101 207.997 53.2214 212.957 56.8368 217.374C57.1274 217.729 57.4058 218.094 57.7538 218.567Z" fill="#F6F4EE"/>
<path d="M172.36 116.862C175.197 114.838 177.943 112.897 181.006 110.732C181.09 111.834 181.206 112.646 181.205 113.457C181.172 141.429 181.23 169.402 181.022 197.373C180.962 205.496 183.47 212.308 189.09 218.089C189.957 218.981 191.295 219.922 190.615 221.452C189.909 223.041 188.357 222.885 186.889 222.886C174.054 222.895 161.219 222.933 148.384 222.987C147.137 222.992 145.67 222.989 145.322 221.725C145.057 220.762 145.426 219.321 146.039 218.473C148.56 214.988 150.848 211.429 151.513 207.08C151.764 205.444 152.043 203.789 152.045 202.142C152.08 181.71 152.109 161.277 152.013 140.845C152 138.164 152.806 135.945 154.297 133.902C158.122 128.661 162.984 124.447 167.963 120.361C169.379 119.199 170.832 118.083 172.36 116.862Z" fill="#F6F4EE"/>
<path d="M133.39 159.772C133.398 165.813 133.423 171.682 133.408 177.55C133.398 181.387 132.217 182.552 128.422 182.582C127.631 182.589 126.84 182.583 125.822 182.583C125.822 183.412 125.818 184.021 125.822 184.63C125.895 195.849 125.974 207.067 126.031 218.286C126.036 219.257 125.994 220.25 125.794 221.195C125.543 222.377 124.742 223.05 123.466 222.973C122.233 222.898 121.38 222.337 121.324 221.009C121.19 217.797 121.017 214.583 120.999 211.37C120.951 202.682 120.976 193.994 120.969 185.306C120.967 182.567 120.962 182.568 118.148 182.588C117.631 182.592 117.112 182.609 116.596 182.589C114.985 182.529 114.101 181.575 113.75 180.108C113.578 179.39 113.547 178.625 113.548 177.881C113.563 168.79 113.614 159.7 113.604 150.61C113.603 149.312 113.93 148.547 115.289 148.136C118.579 147.142 121.02 144.964 123.046 141.917C123.538 142.564 123.971 143.052 124.314 143.597C126.187 146.572 128.668 148.851 131.803 150.473C132.375 150.77 132.971 151.583 133.03 152.208C133.265 154.661 133.289 157.134 133.39 159.772Z" fill="#F6F4EE"/>
<path d="M81.6831 222.183C81.3946 220.735 81.0338 219.394 81.025 218.052C80.9531 207.118 80.949 196.185 80.9196 185.251C80.9113 182.178 81.218 182.537 78.2687 182.608C76.4532 182.652 74.9499 182.319 74.2655 180.414C74.1337 180.047 74.0244 179.646 74.0239 179.261C74.0106 169.941 74.0135 160.621 74.0135 151.558C76.2555 150.348 78.3389 149.224 80.4903 148.062C81.519 149.333 82.4991 150.745 83.6825 151.96C85.699 154.03 88.1928 155.26 91.1213 155.298C92.6034 155.317 93.0646 155.812 93.0467 157.327C92.9645 164.289 93.0114 171.253 93.0098 178.216C93.009 181.445 91.9335 182.549 88.7357 182.6C87.9362 182.613 87.1363 182.602 86.1166 182.602C86.0864 183.274 86.0352 183.874 86.0362 184.474C86.0547 195.983 86.0794 207.492 86.1022 219.002C86.1029 219.347 86.108 219.692 86.0939 220.037C85.9906 222.555 83.8888 224.005 81.6831 222.183Z" fill="#F6F4EE"/>
<path d="M111.376 143.885C108.035 143.645 106.156 141.747 106.144 138.584C106.112 130.475 106.042 122.364 106.217 114.259C106.25 112.744 107.027 110.972 108.023 109.797C112.627 104.37 117.414 99.0981 122.188 93.8188C122.576 93.3904 123.359 93.1473 123.97 93.1252C126.095 93.048 128.224 93.0984 130.352 93.1146C132.8 93.1332 134.801 95.4518 133.931 97.7528C133.005 100.205 131.628 102.522 130.206 104.743C127.844 108.434 125.299 112.009 122.81 115.619C121.739 117.172 121.296 118.833 121.295 120.749C121.293 125.288 121.218 129.834 120.951 134.364C120.665 139.216 116.04 144.353 111.376 143.885Z" fill="#F6F4EE"/>
<path d="M287.432 5.112V75H276.2V45.336H241.832V75H230.6V5.112H241.832V34.584H276.2V5.112H287.432ZM321.511 76.056C317.671 76.056 314.183 75.256 311.047 73.656C307.975 72.056 305.543 69.688 303.751 66.552C301.959 63.352 301.063 59.416 301.063 54.744C301.063 50.136 301.991 46.2 303.847 42.936C305.767 39.608 308.263 37.048 311.335 35.256C314.471 33.464 317.863 32.568 321.511 32.568C325.415 32.568 328.551 33.336 330.919 34.872C333.351 36.408 335.239 38.232 336.583 40.344L336.007 41.88L337.063 34.392H346.951V75H336.199V65.112L337.255 67.704C336.999 68.088 336.487 68.728 335.719 69.624C334.951 70.456 333.895 71.384 332.551 72.408C331.207 73.432 329.607 74.296 327.751 75C325.959 75.704 323.879 76.056 321.511 76.056ZM324.487 67.224C326.407 67.224 328.135 66.872 329.671 66.168C331.271 65.464 332.615 64.472 333.703 63.192C334.855 61.912 335.687 60.376 336.199 58.584V49.752C335.687 48.088 334.855 46.648 333.703 45.432C332.551 44.152 331.143 43.16 329.479 42.456C327.879 41.752 326.087 41.4 324.103 41.4C321.927 41.4 319.911 41.944 318.055 43.032C316.199 44.12 314.695 45.624 313.543 47.544C312.455 49.464 311.911 51.672 311.911 54.168C311.911 56.6 312.487 58.808 313.639 60.792C314.791 62.776 316.327 64.344 318.247 65.496C320.167 66.648 322.247 67.224 324.487 67.224ZM361.798 0.119997H372.55V75H361.798V0.119997ZM387.298 0.119997H398.05V75H387.298V0.119997ZM432.19 76.056C427.39 76.056 423.294 75.128 419.902 73.272C416.51 71.416 413.918 68.856 412.126 65.592C410.334 62.264 409.438 58.52 409.438 54.36C409.438 50.264 410.462 46.584 412.51 43.32C414.558 40.056 417.31 37.464 420.766 35.544C424.286 33.56 428.158 32.568 432.382 32.568C437.95 32.568 442.526 34.2 446.11 37.464C449.758 40.664 452.19 45.208 453.406 51.096L420.67 62.136L418.174 56.088L443.71 46.968L441.502 48.216C440.798 46.296 439.646 44.632 438.046 43.224C436.51 41.816 434.334 41.112 431.518 41.112C429.278 41.112 427.294 41.656 425.566 42.744C423.838 43.768 422.462 45.24 421.438 47.16C420.478 49.016 419.998 51.224 419.998 53.784C419.998 56.408 420.542 58.712 421.63 60.696C422.718 62.68 424.19 64.216 426.046 65.304C427.902 66.328 430.014 66.84 432.382 66.84C434.046 66.84 435.646 66.552 437.182 65.976C438.718 65.4 440.158 64.632 441.502 63.672L446.398 71.64C444.286 72.984 441.95 74.072 439.39 74.904C436.894 75.672 434.494 76.056 432.19 76.056ZM463.986 0.119997H474.738V75H463.986V0.119997Z" fill="#F6F4EE"/>
<path d="M227.386 124L243.177 86.6275H243.474L259.264 124H253.225L241.741 94.894L245.553 92.3695L232.584 124H227.386ZM236.989 110.536H249.76L251.592 115.09H235.405L236.989 110.536ZM290.113 121.277C289.585 121.64 288.793 122.086 287.737 122.614C286.714 123.109 285.493 123.538 284.074 123.901C282.688 124.264 281.153 124.429 279.47 124.396C276.665 124.363 274.141 123.868 271.897 122.911C269.686 121.954 267.805 120.65 266.254 119C264.703 117.317 263.498 115.403 262.64 113.258C261.815 111.08 261.403 108.77 261.403 106.328C261.403 103.622 261.832 101.147 262.69 98.9035C263.548 96.6265 264.769 94.6465 266.353 92.9635C267.97 91.2805 269.851 89.977 271.996 89.053C274.174 88.129 276.55 87.667 279.124 87.667C281.335 87.667 283.331 87.964 285.113 88.558C286.895 89.152 288.397 89.845 289.618 90.637L287.539 95.587C286.582 94.927 285.394 94.3 283.975 93.706C282.589 93.079 281.038 92.7655 279.322 92.7655C277.639 92.7655 276.038 93.112 274.52 93.805C273.035 94.465 271.715 95.4055 270.56 96.6265C269.438 97.8145 268.547 99.217 267.887 100.834C267.227 102.418 266.897 104.15 266.897 106.031C266.897 107.945 267.194 109.711 267.788 111.328C268.382 112.945 269.224 114.347 270.313 115.535C271.435 116.723 272.771 117.647 274.322 118.307C275.873 118.967 277.622 119.297 279.569 119.297C281.417 119.297 283.034 119.017 284.42 118.456C285.839 117.895 286.994 117.251 287.885 116.525L290.113 121.277ZM294.385 124L310.176 86.6275H310.473L326.263 124H320.224L308.74 94.894L312.552 92.3695L299.583 124H294.385ZM303.988 110.536H316.759L318.591 115.09H302.404L303.988 110.536ZM332.708 124V88.063H342.707C346.271 88.063 349.307 88.6075 351.815 89.6965C354.323 90.7855 356.336 92.221 357.854 94.003C359.405 95.785 360.527 97.765 361.22 99.943C361.946 102.121 362.309 104.315 362.309 106.526C362.309 109.199 361.83 111.608 360.873 113.753C359.916 115.898 358.613 117.746 356.963 119.297C355.313 120.815 353.415 121.987 351.27 122.812C349.125 123.604 346.848 124 344.439 124H332.708ZM338.004 118.901H343.449C345.396 118.901 347.178 118.621 348.795 118.06C350.445 117.499 351.864 116.674 353.052 115.585C354.273 114.496 355.214 113.159 355.874 111.575C356.534 109.991 356.864 108.176 356.864 106.13C356.864 103.919 356.484 102.005 355.725 100.388C354.999 98.7385 354.026 97.3855 352.805 96.3295C351.584 95.2405 350.214 94.4485 348.696 93.9535C347.211 93.4255 345.693 93.1615 344.142 93.1615H338.004V118.901ZM370.171 88.063H393.783V93.1615H375.468V103.408H391.753V108.506H375.468V118.901H394.476V124H370.171V88.063ZM402.607 124V86.875H402.657L421.764 113.951L419.487 113.456L438.495 86.875H438.594V124H433.347V98.8045L433.693 101.527L420.427 120.287H420.328L406.815 101.527L407.706 99.052V124H402.607ZM458.179 112.169L444.863 88.063H451.397L461.743 107.665L460.159 107.764L470.405 88.063H476.89L463.475 112.169V124H458.179V112.169Z" fill="#F6F4EE"/>
<path d="M275.1 223V185.5H275.15L294.45 212.85L292.15 212.35L311.35 185.5H311.45V223H306.15V197.55L306.5 200.3L293.1 219.25H293L279.35 200.3L280.25 197.8V223H275.1ZM326.433 210.05C326.433 211.583 326.817 212.967 327.583 214.2C328.35 215.433 329.367 216.417 330.633 217.15C331.9 217.883 333.317 218.25 334.883 218.25C336.55 218.25 338.033 217.883 339.333 217.15C340.633 216.417 341.65 215.433 342.383 214.2C343.15 212.967 343.533 211.583 343.533 210.05V186.7H348.783V210.2C348.783 212.833 348.167 215.15 346.933 217.15C345.7 219.117 344.033 220.65 341.933 221.75C339.833 222.85 337.483 223.4 334.883 223.4C332.35 223.4 330.033 222.85 327.933 221.75C325.833 220.65 324.167 219.117 322.933 217.15C321.733 215.15 321.133 212.833 321.133 210.2V186.7H326.433V210.05ZM377.35 193.65C376.083 192.983 374.716 192.417 373.25 191.95C371.783 191.483 370.366 191.25 369 191.25C367.133 191.25 365.65 191.683 364.55 192.55C363.45 193.383 362.9 194.533 362.9 196C362.9 197.033 363.266 197.933 364 198.7C364.733 199.467 365.683 200.133 366.85 200.7C368.016 201.267 369.25 201.8 370.55 202.3C371.65 202.7 372.733 203.183 373.8 203.75C374.9 204.283 375.883 204.95 376.75 205.75C377.65 206.55 378.35 207.55 378.85 208.75C379.383 209.917 379.65 211.35 379.65 213.05C379.65 214.983 379.166 216.733 378.2 218.3C377.266 219.867 375.9 221.117 374.1 222.05C372.333 222.95 370.183 223.4 367.65 223.4C366.116 223.4 364.616 223.233 363.15 222.9C361.716 222.533 360.35 222.067 359.05 221.5C357.783 220.9 356.633 220.25 355.6 219.55L358 215.4C358.8 215.967 359.716 216.517 360.75 217.05C361.783 217.55 362.85 217.95 363.95 218.25C365.083 218.55 366.15 218.7 367.15 218.7C368.25 218.7 369.333 218.517 370.4 218.15C371.466 217.75 372.35 217.15 373.05 216.35C373.75 215.517 374.1 214.433 374.1 213.1C374.1 211.967 373.783 211.017 373.15 210.25C372.55 209.45 371.733 208.767 370.7 208.2C369.7 207.633 368.616 207.133 367.45 206.7C366.316 206.267 365.166 205.783 364 205.25C362.833 204.717 361.75 204.083 360.75 203.35C359.75 202.583 358.933 201.65 358.3 200.55C357.7 199.417 357.4 198.033 357.4 196.4C357.4 194.467 357.85 192.783 358.75 191.35C359.683 189.883 360.966 188.733 362.6 187.9C364.233 187.067 366.116 186.6 368.25 186.5C370.683 186.5 372.8 186.8 374.6 187.4C376.4 188 378 188.717 379.4 189.55L377.35 193.65ZM387.551 186.7H392.901V223H387.551V186.7ZM429.829 220.25C429.295 220.617 428.495 221.067 427.429 221.6C426.395 222.1 425.162 222.533 423.729 222.9C422.329 223.267 420.779 223.433 419.079 223.4C416.245 223.367 413.695 222.867 411.429 221.9C409.195 220.933 407.295 219.617 405.729 217.95C404.162 216.25 402.945 214.317 402.079 212.15C401.245 209.95 400.829 207.617 400.829 205.15C400.829 202.417 401.262 199.917 402.129 197.65C402.995 195.35 404.229 193.35 405.829 191.65C407.462 189.95 409.362 188.633 411.529 187.7C413.729 186.767 416.129 186.3 418.729 186.3C420.962 186.3 422.979 186.6 424.779 187.2C426.579 187.8 428.095 188.5 429.329 189.3L427.229 194.3C426.262 193.633 425.062 193 423.629 192.4C422.229 191.767 420.662 191.45 418.929 191.45C417.229 191.45 415.612 191.8 414.079 192.5C412.579 193.167 411.245 194.117 410.079 195.35C408.945 196.55 408.045 197.967 407.379 199.6C406.712 201.2 406.379 202.95 406.379 204.85C406.379 206.783 406.679 208.567 407.279 210.2C407.879 211.833 408.729 213.25 409.829 214.45C410.962 215.65 412.312 216.583 413.879 217.25C415.445 217.917 417.212 218.25 419.179 218.25C421.045 218.25 422.679 217.967 424.079 217.4C425.512 216.833 426.679 216.183 427.579 215.45L429.829 220.25Z" fill="#F6F4EE"/>
<path d="M333.35 172.5C332.05 172.5 330.733 172.3 329.4 171.9C328.067 171.467 326.85 170.817 325.75 169.95C324.683 169.083 323.817 168.017 323.15 166.75C322.483 165.45 322.15 163.933 322.15 162.2C322.15 160.9 322.367 159.567 322.8 158.2C323.233 156.8 323.933 155.5 324.9 154.3C325.867 153.1 327.117 152.133 328.65 151.4C330.217 150.633 332.1 150.25 334.3 150.25C336.233 150.25 338.033 150.667 339.7 151.5C341.4 152.3 342.783 153.467 343.85 155C344.917 156.5 345.45 158.35 345.45 160.55C345.45 161.417 345.317 162.4 345.05 163.5C344.817 164.567 344.417 165.633 343.85 166.7C343.317 167.733 342.583 168.7 341.65 169.6C340.717 170.467 339.567 171.167 338.2 171.7C336.833 172.233 335.217 172.5 333.35 172.5ZM333.5 168.25C335.133 168.25 336.433 167.85 337.4 167.05C338.4 166.25 339.117 165.267 339.55 164.1C339.983 162.933 340.2 161.817 340.2 160.75C340.2 159.583 340 158.6 339.6 157.8C339.233 157 338.733 156.367 338.1 155.9C337.467 155.4 336.8 155.033 336.1 154.8C335.4 154.567 334.733 154.45 334.1 154.45C332.533 154.45 331.233 154.85 330.2 155.65C329.2 156.417 328.467 157.383 328 158.55C327.567 159.717 327.35 160.85 327.35 161.95C327.35 163.45 327.667 164.667 328.3 165.6C328.933 166.533 329.733 167.217 330.7 167.65C331.667 168.05 332.6 168.25 333.5 168.25ZM351.889 172L353.839 155.6H350.289L350.889 151.05H354.439L355.439 142.55C355.806 139.55 356.806 137.233 358.439 135.6C360.072 133.967 362.256 133.15 364.989 133.15C365.722 133.15 366.522 133.267 367.389 133.5C368.289 133.7 369.072 134.033 369.739 134.5L367.039 138.25C366.806 137.917 366.506 137.683 366.139 137.55C365.772 137.417 365.406 137.35 365.039 137.35C363.839 137.35 362.856 137.75 362.089 138.55C361.322 139.35 360.839 140.717 360.639 142.65L359.589 151.05H366.139L365.589 155.6H358.989L357.039 172H351.889Z" fill="#F6F4EE"/>
</svg>
